<?xml version="1.0" encoding="UTF-8" standalone="no"?>
<svg width="439px" height="126px" viewBox="0 0 439 126" version="1.1" xmlns="http://www.w3.org/2000/svg" xmlns:xlink="http://www.w3.org/1999/xlink" xmlns:sketch="http://www.bohemiancoding.com/sketch/ns">
    <title>slack</title>
    <description>Created with Sketch (http://www.bohemiancoding.com/sketch)</description>
    <defs>
        <path id="path-1" d="M0,0.313 L438.872,0.313 L438.872,125.94 L0,125.94"></path>
    </defs>
    <g id="Page-1" stroke="none" stroke-width="1" fill="none" fill-rule="evenodd" sketch:type="MSPage">
        <g id="slack_cmyk" sketch:type="MSLayerGroup">
            <g id="Group-4">
                <mask id="mask-2" sketch:name="Clip 2" fill="white">
                    <use xlink:href="#path-1"></use>
                </mask>
                <g id="Clip-2"></g>
                <path d="M79.092,11.548 C77.238,5.841 71.109,2.718 65.403,4.573 C59.696,6.427 56.573,12.556 58.428,18.262 L86.52,104.694 C88.449,110.025 94.208,113.021 99.736,111.43 C105.502,109.77 109.017,103.646 107.177,97.983 C107.107,97.767 79.092,11.548 79.092,11.548" id="Fill-1" fill="#DFA22F" sketch:type="MSShapeGroup" mask="url(#mask-2)"></path>
                <path d="M35.564,25.691 C33.709,19.985 27.58,16.862 21.874,18.716 C16.167,20.57 13.044,26.699 14.899,32.406 L42.991,118.838 C44.92,124.169 50.679,127.165 56.207,125.573 C61.973,123.914 65.488,117.79 63.648,112.126 C63.578,111.911 35.564,25.691 35.564,25.691" id="Fill-3" fill="#3CB187" sketch:type="MSShapeGroup" mask="url(#mask-2)"></path>
            </g>
            <path d="M114.452,83.131 C120.159,81.277 123.281,75.148 121.427,69.441 C119.573,63.735 113.444,60.612 107.738,62.466 L21.306,90.559 C15.975,92.487 12.979,98.246 14.57,103.774 C16.23,109.54 22.354,113.055 28.017,111.215 C28.233,111.145 114.452,83.131 114.452,83.131" id="Fill-5" fill="#CE1E5B" sketch:type="MSShapeGroup"></path>
            <path d="M39.32,107.543 C44.946,105.715 52.197,103.359 59.978,100.831 C58.15,95.205 55.794,87.953 53.265,80.171 L32.606,86.886 L39.32,107.543" id="Fill-6" fill="#392538" sketch:type="MSShapeGroup"></path>
            <g id="Group-10" sketch:type="MSShapeGroup">
                <path d="M82.849,93.399 C90.659,90.862 97.918,88.503 103.507,86.687 C101.679,81.061 99.322,73.807 96.793,66.023 L76.134,72.738 L82.849,93.399" id="Fill-7" fill="#BB242A"></path>
                <path d="M100.309,39.602 C106.015,37.748 109.138,31.619 107.284,25.912 C105.43,20.206 99.301,17.083 93.594,18.937 L7.162,47.03 C1.831,48.958 -1.165,54.717 0.427,60.245 C2.086,66.011 8.21,69.526 13.874,67.686 C14.089,67.616 100.309,39.602 100.309,39.602" id="Fill-9" fill="#72C5CD"></path>
            </g>
            <path d="M25.173,64.015 C30.799,62.187 38.052,59.83 45.834,57.302 C43.297,49.491 40.938,42.232 39.122,36.642 L18.458,43.358 L25.173,64.015" id="Fill-11" fill="#238C73" sketch:type="MSShapeGroup"></path>
            <path d="M68.701,49.872 C76.513,47.334 83.773,44.975 89.363,43.158 C86.825,35.346 84.466,28.085 82.649,22.494 L61.986,29.21 L68.701,49.872" id="Fill-12" fill="#62803A" sketch:type="MSShapeGroup"></path>
            <path d="M202.125,34.299 C205.948,35.967 206.226,37.218 203.237,42.917 C200.18,48.755 199.415,49.102 195.662,47.573 C190.936,45.558 184.889,44.029 180.997,44.029 C174.604,44.029 170.364,46.322 170.364,49.797 C170.364,61.265 206.991,55.079 206.991,79.543 C206.991,91.845 196.426,100.046 180.581,100.046 C172.241,100.046 161.954,97.266 154.865,93.652 C151.321,91.845 151.113,90.802 154.17,84.964 C156.812,79.821 157.645,79.265 161.468,80.864 C167.514,83.505 175.16,85.52 180.303,85.52 C186.141,85.52 190.033,83.157 190.033,79.682 C190.033,68.562 152.781,73.844 152.781,50.145 C152.781,37.565 163.275,29.155 178.982,29.155 C186.349,29.155 195.662,31.379 202.125,34.299" id="Fill-13" fill="#373D40" sketch:type="MSShapeGroup"></path>
            <path d="M231.666,5.247 L231.666,96.432 C231.666,97.822 230.206,99.281 228.122,99.281 L218.53,99.281 C216.445,99.281 214.985,97.822 214.985,96.432 L214.985,5.247 C214.985,0.73 216.237,0.313 223.326,0.313 C231.388,0.313 231.666,0.869 231.666,5.247" id="Fill-14" fill="#373D40" sketch:type="MSShapeGroup"></path>
            <path d="M255.643,79.265 C255.643,83.922 259.605,87.049 265.582,87.049 C272.81,87.049 279.342,83.574 283.165,77.667 L283.165,71.551 C279.342,70.091 274.686,69.257 270.516,69.257 C261.62,69.257 255.643,73.497 255.643,79.265 L255.643,79.265 Z M299.845,56.539 L299.845,95.806 C299.845,97.891 298.386,99.351 296.301,99.351 L286.848,99.351 C284.694,99.351 283.165,97.752 283.304,95.598 L283.443,91.358 C278.3,97.057 270.933,100.046 263.566,100.046 C249.249,100.046 239.658,91.775 239.658,79.404 C239.658,66.269 250.5,57.442 266.763,57.373 C272.949,57.373 278.578,58.485 283.165,60.361 L283.165,55.844 C283.165,48.616 277.466,44.307 267.806,44.307 C263.288,44.307 257.728,46.114 253.28,48.685 C249.874,50.631 249.04,50.492 245.357,45.002 C241.743,39.511 241.882,38.469 245.357,36.245 C252.029,31.935 261.064,29.155 269.404,29.155 C288.099,29.155 299.845,39.303 299.845,56.539 L299.845,56.539 Z" id="Fill-15" fill="#373D40" sketch:type="MSShapeGroup"></path>
            <g id="Group-19" fill="#373D40" sketch:type="MSShapeGroup">
                <path d="M364.901,34.438 C368.375,36.453 368.515,37.565 364.692,43.473 C361.079,49.033 360.453,49.38 356.631,47.434 C353.711,45.905 349.055,44.585 345.232,44.585 C333.209,44.585 325.216,52.508 325.216,64.462 C325.216,76.902 333.209,85.242 345.232,85.242 C349.403,85.242 354.615,83.644 358.02,81.767 C361.495,79.752 362.26,79.891 365.943,85.242 C369.279,90.246 369.21,91.428 366.221,93.513 C360.87,97.196 352.391,100.046 344.955,100.046 C322.715,100.046 307.841,85.798 307.841,64.462 C307.841,43.264 322.715,29.155 345.093,29.155 C351.904,29.155 359.897,31.449 364.901,34.438" id="Fill-16"></path>
                <path d="M437.461,90.663 C440.241,94.208 439.129,95.459 432.179,97.961 C425.09,100.532 424.117,100.393 421.616,97.127 L401.738,70.578 L392.842,79.196 L392.842,96.432 C392.842,97.822 391.383,99.281 389.298,99.281 L379.707,99.281 C377.622,99.281 376.162,97.822 376.162,96.432 L376.162,5.247 C376.162,0.73 377.413,0.313 384.502,0.313 C392.564,0.313 392.842,0.869 392.842,5.247 L392.842,57.095 L420.086,30.963 C423.075,28.113 424.743,28.322 430.094,31.866 C436.002,35.689 436.419,36.731 433.569,39.511 L413.275,59.249 L437.461,90.663" id="Fill-18"></path>
            </g>
        </g>
    </g>
</svg>